<svg width="638.481201171875px" height="159.230029296875px" xmlns="http://www.w3.org/2000/svg" viewBox="-69.2406005859375 -4.615014648437494 638.481201171875 159.230029296875" style="background: rgba(0, 0, 0, 0);" preserveAspectRatio="xMidYMid"><defs><linearGradient id="editing-sticker-gradient" x1="0.5" y1="0.2" x2="0.5" y2="0.8"><stop offset="0" stop-color="#fd9"></stop><stop offset="1" stop-color="#9df"></stop></linearGradient><filter id="editing-sticker" x="-100%" y="-100%" width="300%" height="300%"><feMorphology operator="erode" radius="1" in="SourceAlpha" result="alpha-erode"></feMorphology><feConvolveMatrix order="3,3" divisor="1" kernelMatrix="0 1 0 1 1 1 0 1 0" in="alpha-erode" result="alpha-round"></feConvolveMatrix><feMorphology operator="dilate" radius="3.5" in="alpha-round" result="dilate-shadow"></feMorphology><feGaussianBlur in="dilate-shadow" stdDeviation="1.5" result="shadow"></feGaussianBlur><feFlood flood-color="#fff" result="flood-sticker"></feFlood><feComposite operator="in" in="flood-sticker" in2="alpha-round" result="comp-sticker"></feComposite><feMorphology operator="dilate" radius="3" in="comp-sticker" result="morph-sticker"></feMorphology><feConvolveMatrix order="3,3" divisor="1" kernelMatrix="0 1 0 1 1 1 0 1 0" in="morph-sticker" result="sticker"></feConvolveMatrix><feMerge><feMergeNode in="shadow"></feMergeNode><feMergeNode in="sticker"></feMergeNode><feMergeNode in="SourceGraphic"></feMergeNode></feMerge></filter></defs><g filter="url(#editing-sticker)"><g transform="translate(24.62406849861145, 106.1150016784668)"><path d="M45.76-41.33L45.76-41.33L45.76-41.33Q45.76-45.92 40.92-45.92L40.92-45.92L40.92-45.92Q36.74-45.92 30.05-41.98L30.05-41.98L30.05-41.98Q23.37-38.05 16.32-29.97L16.32-29.97L16.32-29.97Q9.27-21.89 6.48-13.04L6.48-13.04L6.48-13.04Q5.33-9.51 5.33-6.52L5.33-6.52L5.33-6.52Q5.33-3.53 7.05-1.31L7.05-1.31L7.05-1.31Q10.09 2.62 16.97 2.71L16.97 2.71L16.97 2.71Q17.47 2.71 17.88 2.71L17.88 2.71L17.88 2.71Q25.50 2.71 34.36-1.19L34.36-1.19L34.36-1.19Q43.21-5.08 48.54-12.63L48.54-12.63L48.54-12.63Q48.95-13.20 49.41-12.87L49.41-12.87L49.41-12.87Q49.86-12.55 49.86-12.30L49.86-12.30L49.86-12.30Q49.86-12.05 49.69-11.89L49.69-11.89L49.69-11.89Q43.62-3.61 34.77 0.57L34.77 0.57L34.77 0.57Q25.91 4.76 17.63 4.76L17.63 4.76L17.63 4.76Q8.94 4.76 4.51-0.16L4.51-0.16L4.51-0.16Q1.64-3.36 1.64-8.53L1.64-8.53L1.64-8.53Q1.64-17.22 8.20-27.22L8.20-27.22L8.20-27.22Q17.14-40.84 29.85-46.08L29.85-46.08L29.85-46.08Q34.77-48.05 39.28-48.05L39.28-48.05L39.28-48.05Q44.85-48.05 47.23-45.43L47.23-45.43L47.23-45.43Q48.79-43.62 48.79-41.25L48.79-41.25L48.79-41.25Q48.79-36.74 44.03-31.98L44.03-31.98L44.03-31.98Q39.28-27.22 33.50-24.39L33.50-24.39L33.50-24.39Q27.72-21.57 23.45-21.16L23.45-21.16L23.45-21.16Q21.73-20.99 21.81-22.06L21.81-22.06L21.81-22.06Q21.89-23.53 23.86-23.70L23.86-23.70L23.86-23.70Q30.42-24.27 35.92-27.68L35.92-27.68L35.92-27.68Q41.41-31.08 44.36-36.74L44.36-36.74L44.36-36.74Q45.76-38.95 45.76-41.33ZM64.12-9.02L64.12-9.02L64.12-9.02Q65.60-12.05 65.60-13.69L65.60-13.69L65.60-13.69Q65.60-15.33 65.23-16.28L65.23-16.28L65.23-16.28Q64.86-17.22 65.56-17.88L65.56-17.88L65.56-17.88Q66.26-18.53 67.32-18.37L67.32-18.37L67.32-18.37Q68.96-17.96 68.96-14.68L68.96-14.68L68.96-14.68Q68.96-11.40 65.11-6.07L65.11-6.07L65.11-6.07Q65.19-3.85 67.40-3.85L67.40-3.85L67.40-3.85Q69.62-3.85 74.13-8.61L74.13-8.61L74.13-8.61Q76.26-11.07 76.79-11.81L76.79-11.81L76.79-11.81Q77.33-12.55 77.74-12.34L77.74-12.34L77.74-12.34Q78.15-12.14 78.15-11.97L78.15-11.97L78.15-11.97Q78.15-11.15 75.19-7.71L75.19-7.71L75.19-7.71Q70.52-1.97 66.91-1.97L66.91-1.97L66.91-1.97Q64.53-1.97 63.55-4.02L63.55-4.02L63.55-4.02Q61.91-2.30 60.35-0.82L60.35-0.82L60.35-0.82Q57.15 1.89 53.22 1.89L53.22 1.89L53.22 1.89Q51.00 1.89 49.53 0.82L49.53 0.82L49.53 0.82Q46.66-0.90 46.66-5.33L46.66-5.33L46.66-5.33Q46.66-10.17 49.94-15.17L49.94-15.17L49.94-15.17Q51.82-18.12 54.37-20.34L54.37-20.34L54.37-20.34Q58.38-23.86 61.99-23.86L61.99-23.86L61.99-23.86Q62.89-23.86 63.71-23.62L63.71-23.62L63.71-23.62Q66.17-22.80 66.17-20.50L66.17-20.50L66.17-20.50Q66.17-18.61 65.19-18.61L65.19-18.61L65.19-18.61Q64.78-18.78 64.78-19.84L64.78-19.84L64.78-19.84Q64.78-21.32 63.14-21.32L63.14-21.32L63.14-21.32Q60.27-21.32 55.76-16.07L55.76-16.07L55.76-16.07Q51.25-10.82 50.35-5.49L50.35-5.49L50.35-5.49Q50.18-4.59 50.18-3.49L50.18-3.49L50.18-3.49Q50.18-2.38 50.92-0.94L50.92-0.94L50.92-0.94Q51.66 0.49 53.67 0.49L53.67 0.49L53.67 0.49Q55.68 0.49 58.06-1.31L58.06-1.31L58.06-1.31Q60.43-3.12 62.32-5.90L62.32-5.90L62.07-6.40L62.07-6.40Q61.75-7.71 62.40-8.53L62.40-8.53L62.40-8.53Q63.06-9.35 64.12-9.02ZM96.51-18.04L96.51-18.04L96.92-19.68L96.92-19.68Q96.92-21.32 95.69-21.32L95.69-21.32L95.69-21.32Q92.33-21.32 86.51-16.07L86.51-16.07L86.51-16.07Q80.69-10.82 79.13-5.49L79.13-5.49L79.13-5.49Q78.72-4.10 78.72-2.99L78.72-2.99L78.72-2.99Q78.72-1.89 79.21-1.15L79.21-1.15L79.21-1.15Q80.20 0.33 82.25 0.33L82.25 0.33L82.25 0.33Q84.30 0.33 86.67-0.25L86.67-0.25L86.67-0.25Q91.92-1.72 95.41-4.47L95.41-4.47L95.41-4.47Q98.89-7.22 102.75-12.14L102.75-12.14L102.75-12.14Q103.07-12.55 103.53-12.38L103.53-12.38L103.53-12.38Q103.98-12.22 103.98-11.93L103.98-11.93L103.98-11.93Q103.98-11.64 103.73-11.07L103.73-11.07L103.73-11.07Q99.79-5.74 95.49-2.42L95.49-2.42L95.49-2.42Q91.18 0.90 85.53 1.89L85.53 1.89L85.53 1.89Q83.89 2.13 82.49 2.13L82.49 2.13L82.49 2.13Q78.47 2.13 76.38 0.16L76.38 0.16L76.38 0.16Q74.29-1.80 74.29-4.18L74.29-4.18L74.29-4.18Q74.29-6.56 75.44-9.35L75.44-9.35L75.44-9.35Q77.49-14.02 84.21-18.94L84.21-18.94L84.21-18.94Q90.94-23.86 94.87-23.86L94.87-23.86L94.87-23.86Q95.86-23.86 96.76-23.62L96.76-23.62L96.76-23.62Q99.06-22.80 99.06-20.99L99.06-20.99L99.06-20.99Q99.06-19.76 98.15-18.20L98.15-18.20L98.15-18.20Q97.25-16.65 96.80-17.10L96.80-17.10L96.80-17.10Q96.35-17.55 96.51-18.04ZM105.53 0.66L105.53 0.66L105.53 0.66Q102.58 2.13 101.76 2.13L101.76 2.13L101.76 2.13Q100.94 2.13 100.94 1.89L100.94 1.89L100.94 1.89Q100.94 1.64 101.06 1.35L101.06 1.35L101.06 1.35Q101.19 1.07 102.21-1.72L102.21-1.72L102.21-1.72Q103.24-4.51 104.80-8.77L104.80-8.77L104.80-8.77Q106.35-13.04 107.50-15.91L107.50-15.91L107.50-15.91Q105.62-13.86 103.07-10.25L103.07-10.25L103.07-10.25Q102.66-9.68 101.97-9.92L101.97-9.92L101.97-9.92Q101.27-10.17 102.42-11.64L102.42-11.64L102.42-11.64Q105.12-14.92 109.22-21.07L109.22-21.07L109.22-21.07Q107.99-21.73 107.99-22.35L107.99-22.35L107.99-22.35Q107.99-22.96 108.16-23.29L108.16-23.29L108.16-23.29Q108.57-24.27 109.63-23.70L109.63-23.70L109.63-23.70Q110.13-23.53 110.29-23.53L110.29-23.53L110.29-23.53Q113.90-33.05 119.31-40.51L119.31-40.51L119.31-40.51Q122.26-44.69 125.46-46.62L125.46-46.62L125.46-46.62Q128.66-48.54 131.45-48.54L131.45-48.54L131.45-48.54Q133.41-48.54 135.22-47.60L135.22-47.60L135.22-47.60Q137.02-46.66 137.02-44.53L137.02-44.53L137.02-44.53Q137.02-40.43 129.97-32.64L129.97-32.64L129.97-32.64Q126.20-28.62 121.52-25.26L121.52-25.26L121.52-25.26Q116.85-21.89 113.24-20.34L113.24-20.34L113.24-20.34Q110.04-13.28 107.58-5.58L107.58-5.58L112.91-12.55L112.91-12.55Q112.83-13.28 112.83-14.10L112.83-14.10L112.83-14.10Q112.83-16.56 113.90-17.14L113.90-17.14L113.90-17.14Q114.47-17.38 114.64-16.15L114.64-16.15L114.96-15.01L114.96-15.01Q121.28-22.39 124.07-23.70L124.07-23.70L124.07-23.70Q125.38-24.35 126.44-24.35L126.44-24.35L126.44-24.35Q127.51-24.35 128.33-23.78L128.33-23.78L128.33-23.78Q129.15-23.21 129.15-22.55L129.15-22.55L129.15-22.55Q129.15-21.40 127.26-20.50L127.26-20.50L127.26-20.50Q118.24-16.15 115.37-13.12L115.37-13.12L115.37-13.12Q117.34-6.23 119.23-2.30L119.23-2.30L119.23-2.30Q121.11 1.64 125.17 6.56L125.17 6.56L125.17 6.56Q129.23 11.48 132.59 11.48L132.59 11.48L132.59 11.48Q135.38 11.48 134.89 9.02L134.89 9.02L134.89 9.02Q134.56 6.81 133.54 5.21L133.54 5.21L133.54 5.21Q132.51 3.61 133.33 3.61L133.33 3.61L133.33 3.61Q134.07 3.69 134.89 4.35L134.89 4.35L134.89 4.35Q135.38 4.92 136.04 6.36L136.04 6.36L136.04 6.36Q136.69 7.79 136.69 8.77L136.69 8.77L136.69 8.77Q136.61 11.07 134.48 12.38L134.48 12.38L134.48 12.38Q132.35 13.69 130.38 13.69L130.38 13.69L130.38 13.69Q126.53 13.69 122.84 9.88L122.84 9.88L122.84 9.88Q119.15 6.07 116.69 0.66L116.69 0.66L116.69 0.66Q114.23-4.76 113.24-10.41L113.24-10.41L113.24-10.41Q111.77-8.36 109.96-5.49L109.96-5.49L109.96-5.49Q106.27 0.16 105.53 0.66ZM132.35-39.85L132.35-39.85L132.35-39.85Q134.56-43.54 134.56-45.02L134.56-45.02L134.56-45.02Q134.56-46.49 133.33-46.49L133.33-46.49L133.33-46.49Q132.10-46.49 130.22-45.02L130.22-45.02L130.22-45.02Q124.97-41 121.36-35.88L121.36-35.88L121.36-35.88Q117.75-30.75 114.23-23.12L114.23-23.12L114.23-23.12Q121.85-26.65 128.08-33.78L128.08-33.78L128.08-33.78Q130.13-36.16 132.35-39.85ZM142.02-22.88L143.09-22.96L143.09-22.96Q149.40-23.53 150.76-23.53L150.76-23.53L150.76-23.53Q152.11-23.53 152.11-23.12L152.11-23.12L152.11-23.12Q152.11-22.63 150.18-22.10L150.18-22.10L150.18-22.10Q148.26-21.57 140.79-20.75L140.79-20.75L140.79-20.75Q140.38-20.01 139.81-19.02L139.81-19.02L139.81-19.02Q138.58-17.06 138.50-16.65L138.50-16.65L138.50-16.65Q133.82-7.30 133.58-4.76L133.58-4.76L133.58-4.76Q133.50-4.02 133.50-2.87L133.50-2.87L133.50-2.87Q133.50-1.72 134.15-0.98L134.15-0.98L134.15-0.98Q135.30 0.33 137.43-0.82L137.43-0.82L137.43-0.82Q139.56-1.97 143.38-5.41L143.38-5.41L143.38-5.41Q147.19-8.86 149.57-12.14L149.57-12.14L149.57-12.14Q149.90-12.55 150.39-12.30L150.39-12.30L150.39-12.30Q151.62-11.73 146.12-5.82L146.12-5.82L146.12-5.82Q140.88-0.16 137.35 1.15L137.35 1.15L137.35 1.15Q135.30 1.89 133.91 1.89L133.91 1.89L133.91 1.89Q130.63 1.89 129.56-1.23L129.56-1.23L129.56-1.23Q129.40-1.80 129.40-2.62L129.40-2.62L129.40-2.62Q129.40-5.49 132.02-11.32L132.02-11.32L132.02-11.32Q131.61-10.41 128.82-7.22L128.82-7.22L128.82-7.22Q128.08-6.40 127.67-7.22L127.67-7.22L127.67-7.22Q127.59-7.38 127.59-7.67L127.59-7.67L127.59-7.67Q127.59-7.95 127.92-8.36L127.92-8.36L127.92-8.36Q131.94-13.37 134.23-16.81L134.23-16.81L134.23-16.81Q134.23-16.89 136.04-20.25L136.04-20.25L136.04-20.25Q135.22-20.09 134.36-20.09L134.36-20.09L134.36-20.09Q133.50-20.09 133.09-20.62L133.09-20.62L133.09-20.62Q132.68-21.16 133.00-21.89L133.00-21.89L133.00-21.89Q133.58-23.21 137.35-23.37L137.35-23.37L137.35-23.37Q137.43-23.53 137.68-23.53L137.68-23.53L141.78-31.16L141.78-31.16Q142.11-31.82 142.52-32.51L142.52-32.51L142.52-32.51Q142.93-33.21 143.13-33.58L143.13-33.58L143.13-33.58Q143.34-33.95 143.58-34.36L143.58-34.36L143.58-34.36Q143.83-34.77 143.99-34.93L143.99-34.93L143.99-34.93Q144.16-35.10 144.32-35.26L144.32-35.26L144.32-35.26Q144.65-35.75 146.25-35.75L146.25-35.75L146.25-35.75Q147.85-35.75 148.42-34.85L148.42-34.85L148.42-34.85Q148.67-34.52 148.67-33.74L148.67-33.74L148.67-33.74Q148.67-32.96 148.09-32.02L148.09-32.02L148.09-32.02Q147.52-31.08 146.86-30.67L146.86-30.67L146.86-30.67Q146.21-30.26 145.96-29.77L145.96-29.77L142.02-22.88ZM152.60 0.90L152.60 0.90L152.60 0.90Q151.29 0.90 149.77 0.12L149.77 0.12L149.77 0.12Q148.26-0.66 147.19-2.09L147.19-2.09L147.19-2.09Q146.12-3.53 146.12-5.17L146.12-5.17L146.12-5.17Q146.12-6.81 146.86-8.28L146.86-8.28L146.86-8.28Q148.50-11.73 152.15-14.96L152.15-14.96L152.15-14.96Q155.80-18.20 159.74-20.50L159.74-20.50L159.74-20.50Q163.67-22.80 165.97-23.37L165.97-23.37L165.97-23.37Q168.26-23.94 170.44-23.94L170.44-23.94L170.44-23.94Q172.61-23.94 174.17-22.84L174.17-22.84L174.17-22.84Q175.73-21.73 175.73-20.50L175.73-20.50L175.73-20.50Q175.73-20.09 175.64-20.01L175.64-20.01L175.64-20.01Q175.56-19.93 175.23-20.09L175.23-20.09L175.23-20.09Q174.25-21.65 171.18-21.65L171.18-21.65L171.18-21.65Q168.10-21.65 164.21-19.64L164.21-19.64L164.21-19.64Q160.31-17.63 156.87-14.60L156.87-14.60L156.87-14.60Q154.00-11.89 151.82-8.49L151.82-8.49L151.82-8.49Q149.65-5.08 149.65-3.53L149.65-3.53L149.65-3.53Q149.65-0.49 151.37-0.49L151.37-0.49L151.37-0.49Q153.09-0.49 156.62-3.28L156.62-3.28L156.62-3.28Q162.44-8.20 164.57-10.50L164.57-10.50L164.57-10.50Q172.12-18.61 172.69-18.61L172.69-18.61L172.69-18.61Q173.68-18.61 175.07-18.04L175.07-18.04L175.07-18.04Q176.46-17.47 175.97-16.65L175.97-16.65L175.97-16.65Q171.79-10.74 171.05-4.76L171.05-4.76L171.05-4.76Q170.97-4.02 170.97-2.87L170.97-2.87L170.97-2.87Q170.97-1.72 171.63-0.98L171.63-0.98L171.63-0.98Q172.86 0.33 174.99-0.82L174.99-0.82L174.99-0.82Q177.12-1.97 180.93-5.41L180.93-5.41L180.93-5.41Q184.75-8.86 187.04-12.14L187.04-12.14L187.04-12.14Q187.37-12.55 187.78-12.34L187.78-12.34L187.78-12.34Q188.19-12.14 188.19-11.97L188.19-11.97L188.19-11.97Q188.19-10.74 184.30-6.60L184.30-6.60L184.30-6.60Q180.40-2.46 178.35-0.98L178.35-0.98L178.35-0.98Q174.50 1.89 171.22 1.89L171.22 1.89L171.22 1.89Q168.10 1.89 167.03-1.23L167.03-1.23L167.03-1.23Q166.79-2.21 166.79-3.44L166.79-3.44L166.79-3.44Q166.79-7.13 168.35-11.23L168.35-11.23L168.35-11.23Q168.02-11.07 165.31-7.95L165.31-7.95L165.31-7.95Q162.61-4.84 159.04-1.97L159.04-1.97L159.04-1.97Q155.47 0.90 152.60 0.90ZM193.85-22.71L193.85-22.71L193.85-22.71Q195.90-22.71 196.31-21.40L196.31-21.40L196.31-21.40Q196.47-20.66 196.10-19.97L196.10-19.97L196.10-19.97Q195.73-19.27 195.57-18.86L195.57-18.86L195.57-18.86Q195.41-18.45 195.32-18.20L195.32-18.20L195.32-18.20Q194.91-17.38 194.50-16.65L194.50-16.65L194.50-16.65Q189.83-7.30 189.58-4.76L189.58-4.76L189.58-4.76Q189.50-4.02 189.50-2.87L189.50-2.87L189.50-2.87Q189.50-1.72 190.16-0.98L190.16-0.98L190.16-0.98Q191.31 0.33 193.44-0.82L193.44-0.82L193.44-0.82Q195.57-1.97 199.38-5.41L199.38-5.41L199.38-5.41Q203.20-8.86 205.57-12.14L205.57-12.14L205.57-12.14Q205.90-12.55 206.31-12.34L206.31-12.34L206.31-12.34Q206.72-12.14 206.72-11.93L206.72-11.93L206.72-11.93Q206.72-11.73 206.56-11.48L206.56-11.48L206.56-11.48Q205.33-9.27 202.13-5.82L202.13-5.82L202.13-5.82Q196.88-0.16 193.36 1.15L193.36 1.15L193.36 1.15Q191.31 1.89 189.91 1.89L189.91 1.89L189.91 1.89Q186.63 1.89 185.57-1.23L185.57-1.23L185.57-1.23Q185.40-1.80 185.40-2.62L185.40-2.62L185.40-2.62Q185.40-5.49 188.03-11.32L188.03-11.32L188.03-11.32Q187.62-10.41 184.83-7.22L184.83-7.22L184.83-7.22Q184.09-6.40 183.68-7.22L183.68-7.22L183.68-7.22Q183.60-7.38 183.60-7.67L183.60-7.67L183.60-7.67Q183.60-7.95 183.93-8.36L183.93-8.36L183.93-8.36Q187.94-13.37 190.24-16.81L190.24-16.81L190.24-16.81Q190.08-17.22 190.40-17.88L190.40-17.88L190.40-17.88Q192.04-22.47 193.27-22.71L193.27-22.71L193.27-22.71Q193.52-22.71 193.85-22.71ZM200.33-33.62L200.33-33.62L199.67-31.00L199.67-31.00Q199.67-30.26 198.60-28.62L198.60-28.62L198.60-28.62Q197.54-26.98 196.96-26.98L196.96-26.98L196.96-26.98Q193.44-26.98 193.44-28.70L193.44-28.70L193.44-28.70Q193.44-29.03 196.96-31.73L196.96-31.73L198.36-32.80L198.36-32.80Q199.67-33.95 200.00-33.95L200.00-33.95L200.00-33.95Q200.33-33.95 200.33-33.62ZM232.96-41.82L232.96-41.82L232.96-41.82Q233.95-43.62 233.95-44.61L233.95-44.61L233.95-44.61Q233.95-46.33 232.55-46.33L232.55-46.33L232.55-46.33Q231.40-46.33 229.68-45.02L229.68-45.02L229.68-45.02Q223.12-39.93 216.97-28.95L216.97-28.95L216.97-28.95Q212.05-20.09 209.76-13.78L209.76-13.78L209.76-13.78Q215.41-17.63 222.43-26.32L222.43-26.32L222.43-26.32Q229.44-35.01 232.96-41.82ZM208.53-10.50L208.53-10.50L208.53-10.50Q207.54-7.71 207.46-6.77L207.46-6.77L207.46-6.77Q207.38-5.82 207.38-4.22L207.38-4.22L207.38-4.22Q207.38-2.62 208.20-1.31L208.20-1.31L208.20-1.31Q209.59 0.90 212.87-0.98L212.87-0.98L212.87-0.98Q215.33-2.30 219.10-5.78L219.10-5.78L219.10-5.78Q222.88-9.27 224.93-12.14L224.93-12.14L224.93-12.14Q225.09-12.38 225.42-12.38L225.42-12.38L225.42-12.38Q226.16-12.38 225.83-11.32L225.83-11.32L225.83-11.32Q224.60-9.10 221.28-5.66L221.28-5.66L221.28-5.66Q217.96-2.21 215.25-0.21L215.25-0.21L215.25-0.21Q212.54 1.80 209.84 1.80L209.84 1.80L209.84 1.80Q203.61 1.80 203.61-4.26L203.61-4.26L203.61-4.26Q203.61-4.51 203.61-4.76L203.61-4.76L203.61-4.76Q203.93-10.50 209.43-22.10L209.43-22.10L209.43-22.10Q214.92-33.70 219.35-39.61L219.35-39.61L221.89-42.80L221.89-42.80Q222.79-43.87 224.52-45.43L224.52-45.43L224.52-45.43Q227.80-48.54 231.28-48.54L231.28-48.54L231.28-48.54Q234.77-48.54 236.00-46.41L236.00-46.41L236.00-46.41Q236.41-45.67 236.41-44.28L236.41-44.28L236.41-44.28Q236.41-42.89 235.18-40.34L235.18-40.34L235.18-40.34Q226.73-25.67 208.53-10.50ZM286.84-17.96L286.84-17.96L266.50-20.66L266.50-20.66Q254.04 7.63 242.31 11.23L242.31 11.23L242.31 11.23Q240.18 11.97 238.54 11.97L238.54 11.97L238.54 11.97Q232.39 11.97 230.99 6.81L230.99 6.81L230.99 6.81Q230.91 6.48 230.91 6.11L230.91 6.11L230.91 6.11Q230.91 5.74 231.04 5.21L231.04 5.21L231.04 5.21Q231.16 4.67 231.57 4.84L231.57 4.84L231.57 4.84Q231.98 5.00 232.39 6.40L232.39 6.40L232.39 6.40Q233.13 8.77 235.50 9.43L235.50 9.43L235.50 9.43Q237.31 9.76 238.66 9.76L238.66 9.76L238.66 9.76Q240.01 9.76 241.00 9.43L241.00 9.43L241.00 9.43Q252.97 5.66 263.38-21.07L263.38-21.07L259.04-21.32L259.04-21.32Q257.89-21.40 256.91-21.40L256.91-21.40L256.91-21.40Q246.49-21.40 244.11-14.68L244.11-14.68L244.11-14.68Q243.70-13.78 243.70-12.96L243.70-12.96L243.70-12.96Q243.70-12.14 244.20-11.32L244.20-11.32L244.20-11.32Q244.69-10.50 243.91-10.29L243.91-10.29L243.91-10.29Q243.13-10.09 242.64-10.82L242.64-10.82L242.64-10.82Q241.74-12.46 241.74-13.86L241.74-13.86L241.74-13.86Q241.74-18.86 243.58-21.28L243.58-21.28L243.58-21.28Q245.43-23.70 247.89-24.44L247.89-24.44L247.89-24.44Q250.84-25.26 254.45-25.26L254.45-25.26L259.45-24.76L259.45-24.76Q262.07-24.52 264.45-24.03L264.45-24.03L264.45-24.03Q266.42-29.27 269.21-38.13L269.21-38.13L269.21-38.13Q264.86-34.28 258.55-33.62L258.55-33.62L258.55-33.62Q257.73-33.54 257.69-34.19L257.69-34.19L257.69-34.19Q257.64-34.85 258.63-35.01L258.63-35.01L258.63-35.01Q262.15-35.34 265.89-38.62L265.89-38.62L265.89-38.62Q269.62-41.90 271.58-46.33L271.58-46.33L271.58-46.33Q271.75-47.31 274.29-47.31L274.29-47.31L274.29-47.31Q276.83-47.31 276.75-46.33L276.75-46.33L276.75-46.33Q276.26-45.10 273.10-36.86L273.10-36.86L273.10-36.86Q269.94-28.62 267.65-23.37L267.65-23.37L267.65-23.37Q269.78-22.96 273.88-21.98L273.88-21.98L273.88-21.98Q282.24-20.09 287.41-19.52L287.41-19.52L287.41-19.52Q292.17-29.60 293.36-32.43L293.36-32.43L293.36-32.43Q294.54-35.26 294.54-36.00L294.54-36.00L294.54-36.00Q294.54-36.74 294.30-37.15L294.30-37.15L294.30-37.15Q294.54-39.44 297.87-43.17L297.87-43.17L297.87-43.17Q301.19-46.90 304.14-46.90L304.14-46.90L304.14-46.90Q305.45-46.90 307.30-45.96L307.30-45.96L307.30-45.96Q309.14-45.02 309.14-43.54L309.14-43.54L309.14-43.54Q309.14-43.21 308.73-43.46L308.73-43.46L308.73-43.46Q308.32-43.71 308.16-43.71L308.16-43.71L308.16-43.71Q306.11-43.71 303.40-40.80L303.40-40.80L303.40-40.80Q300.69-37.88 298.07-33.29L298.07-33.29L298.07-33.29Q294.05-26.16 290.94-19.19L290.94-19.19L290.94-19.19Q297.99-19.19 300.37-22.14L300.37-22.14L300.37-22.14Q300.78-22.88 301.19-22.35L301.19-22.35L301.19-22.35Q301.60-21.81 300.90-20.79L300.90-20.79L300.90-20.79Q300.20-19.76 297.82-18.78L297.82-18.78L297.82-18.78Q295.45-17.79 290.28-17.79L290.28-17.79L290.28-17.79Q286.43-8.69 286.43-3.53L286.43-3.53L286.43-3.53Q286.43 0.49 288.76 0.49L288.76 0.49L288.76 0.49Q291.10 0.49 295.73-3.12L295.73-3.12L295.73-3.12Q300.37-6.72 304.47-12.22L304.47-12.22L304.47-12.22Q304.71-12.55 305.20-12.34L305.20-12.34L305.20-12.34Q305.70-12.14 305.49-11.60L305.49-11.60L305.49-11.60Q305.29-11.07 304.22-9.51L304.22-9.51L304.22-9.51Q300.78-4.84 295.77-0.82L295.77-0.82L295.77-0.82Q292.08 2.05 287.74 2.05L287.74 2.05L287.74 2.05Q285.52 2.05 284.34 0.74L284.34 0.74L284.34 0.74Q283.15-0.57 283.02-1.72L283.02-1.72L283.02-1.72Q282.90-2.87 282.90-3.85L282.90-3.85L282.90-3.85Q282.90-4.84 283.23-6.89L283.23-6.89L283.23-6.89Q284.05-12.14 286.84-17.96ZM322.26-23.86L322.26-23.86L322.26-23.86Q326.69-23.86 326.69-19.60L326.69-19.60L326.69-19.60Q326.69-17.38 325.46-15.99L325.46-15.99L325.46-15.99Q323.41-12.96 318.82-10.70L318.82-10.70L318.82-10.70Q314.22-8.45 311.03-8.20L311.03-8.20L311.03-8.20Q309.88-8.12 309.80-8.86L309.80-8.86L309.80-8.86Q309.71-9.18 310.00-9.27L310.00-9.27L310.00-9.27Q310.29-9.35 310.45-9.35L310.45-9.35L310.45-9.35Q312.34-9.51 315.29-11.15L315.29-11.15L315.29-11.15Q320.78-14.10 323.33-17.22L323.33-17.22L323.33-17.22Q324.39-18.70 324.39-20.05L324.39-20.05L324.39-20.05Q324.39-21.40 323.08-21.40L323.08-21.40L323.08-21.40Q322.01-21.40 320.21-20.50L320.21-20.50L320.21-20.50Q316.36-18.70 312.09-14.23L312.09-14.23L312.09-14.23Q307.83-9.76 306.52-5.49L306.52-5.49L306.52-5.49Q306.11-4.18 306.11-2.91L306.11-2.91L306.11-2.91Q306.11-1.64 307.17-0.49L307.17-0.49L307.17-0.49Q308.24 0.66 310.45 0.66L310.45 0.66L310.45 0.66Q312.91 0.66 316.11-0.66L316.11-0.66L316.11-0.66Q325.38-4.43 330.38-12.05L330.38-12.05L330.38-12.05Q330.87-12.71 331.28-12.30L331.28-12.30L331.28-12.30Q331.61-12.14 331.61-11.89L331.61-11.89L331.61-11.89Q331.61-11.64 331.36-11.32L331.36-11.32L331.36-11.32Q328.90-7.22 325.13-4.02L325.13-4.02L325.13-4.02Q317.83 2.21 310.94 2.21L310.94 2.21L310.94 2.21Q305.04 2.21 302.66-1.31L302.66-1.31L302.66-1.31Q301.76-2.71 301.76-4.67L301.76-4.67L301.76-4.67Q301.76-6.64 302.83-9.35L302.83-9.35L302.83-9.35Q304.88-14.02 311.60-18.94L311.60-18.94L311.60-18.94Q318.32-23.86 322.26-23.86ZM333.58 0.90L333.58 0.90L333.58 0.90Q332.26 0.90 330.75 0.12L330.75 0.12L330.75 0.12Q329.23-0.66 328.16-2.09L328.16-2.09L328.16-2.09Q327.10-3.53 327.10-5.17L327.10-5.17L327.10-5.17Q327.10-6.81 327.84-8.28L327.84-8.28L327.84-8.28Q329.48-11.73 333.13-14.96L333.13-14.96L333.13-14.96Q336.77-18.20 340.71-20.50L340.71-20.50L340.71-20.50Q344.65-22.80 346.94-23.37L346.94-23.37L346.94-23.37Q349.24-23.94 351.41-23.94L351.41-23.94L351.41-23.94Q353.58-23.94 355.14-22.84L355.14-22.84L355.14-22.84Q356.70-21.73 356.70-20.50L356.70-20.50L356.70-20.50Q356.70-20.09 356.62-20.01L356.62-20.01L356.62-20.01Q356.54-19.93 356.21-20.09L356.21-20.09L356.21-20.09Q355.22-21.65 352.15-21.65L352.15-21.65L352.15-21.65Q349.07-21.65 345.18-19.64L345.18-19.64L345.18-19.64Q341.28-17.63 337.84-14.60L337.84-14.60L337.84-14.60Q334.97-11.89 332.80-8.49L332.80-8.49L332.80-8.49Q330.62-5.08 330.62-3.53L330.62-3.53L330.62-3.53Q330.62-0.49 332.35-0.49L332.35-0.49L332.35-0.49Q334.07-0.49 337.59-3.28L337.59-3.28L337.59-3.28Q343.42-8.20 345.55-10.50L345.55-10.50L345.55-10.50Q353.09-18.61 353.67-18.61L353.67-18.61L353.67-18.61Q354.65-18.61 356.04-18.04L356.04-18.04L356.04-18.04Q357.44-17.47 356.95-16.65L356.95-16.65L356.95-16.65Q352.76-10.74 352.03-4.76L352.03-4.76L352.03-4.76Q351.94-4.02 351.94-2.87L351.94-2.87L351.94-2.87Q351.94-1.72 352.60-0.98L352.60-0.98L352.60-0.98Q353.83 0.33 355.96-0.82L355.96-0.82L355.96-0.82Q358.09-1.97 361.91-5.41L361.91-5.41L361.91-5.41Q365.72-8.86 368.02-12.14L368.02-12.14L368.02-12.14Q368.34-12.55 368.75-12.34L368.75-12.34L368.75-12.34Q369.16-12.14 369.16-11.97L369.16-11.97L369.16-11.97Q369.16-10.74 365.27-6.60L365.27-6.60L365.27-6.60Q361.37-2.46 359.32-0.98L359.32-0.98L359.32-0.98Q355.47 1.89 352.19 1.89L352.19 1.89L352.19 1.89Q349.07 1.89 348.01-1.23L348.01-1.23L348.01-1.23Q347.76-2.21 347.76-3.44L347.76-3.44L347.76-3.44Q347.76-7.13 349.32-11.23L349.32-11.23L349.32-11.23Q348.99-11.07 346.29-7.95L346.29-7.95L346.29-7.95Q343.58-4.84 340.01-1.97L340.01-1.97L340.01-1.97Q336.45 0.90 333.58 0.90ZM371.21-18.29L371.21-18.29L371.21-18.29Q371.21-22.22 368.92-22.22L368.92-22.22L368.92-22.22Q368.43-22.22 367.89-22.10L367.89-22.10L367.89-22.10Q367.36-21.98 367.36-22.30L367.36-22.30L367.36-22.30Q367.36-22.63 367.85-23.12L367.85-23.12L367.85-23.12Q368.34-23.53 371.21-23.78L371.21-23.78L371.21-23.78Q374.66-23.78 375.52-22.80L375.52-22.80L375.52-22.80Q376.38-21.81 376.38-20.83L376.38-20.83L376.38-20.83Q376.38-19.84 374.86-15.95L374.86-15.95L374.86-15.95Q373.35-12.05 373.26-11.89L373.26-11.89L373.26-11.89Q370.80-4.51 371.05-2.62L371.05-2.62L371.05-2.62Q378.43-12.55 380.73-15.01L380.73-15.01L380.73-15.01Q385.56-20.34 387.61-22.30L387.61-22.30L387.61-22.30Q392.37-26.73 395.98-28.29L395.98-28.29L395.98-28.29Q397.04-28.70 397.86-28.70L397.86-28.70L397.86-28.70Q400.57-28.70 401.55-27.06L401.55-27.06L401.55-27.06Q401.88-26.65 401.88-26.28L401.88-26.28L401.88-26.28Q401.88-25.91 401.64-25.42L401.64-25.42L401.64-25.42Q401.39-24.93 400.73-25.46L400.73-25.46L400.73-25.46Q400.08-25.99 397.78-25.99L397.78-25.99L397.78-25.99Q394.01-25.99 385.15-17.14L385.15-17.14L385.15-17.14Q379.82-11.64 375.36-5.66L375.36-5.66L375.36-5.66Q370.89 0.33 370.56 2.87L370.56 2.87L370.56 2.87Q370.56 3.53 369.33 3.53L369.33 3.53L369.33 3.53Q368.10 3.53 367.48 2.50L367.48 2.50L367.48 2.50Q366.87 1.48 366.87 0.78L366.87 0.78L366.87 0.78Q366.87 0.08 366.95-0.45L366.95-0.45L366.95-0.45Q367.03-0.98 368.59-6.48L368.59-6.48L368.59-6.48Q370.15-11.97 370.56-13.78L370.56-13.78L370.56-13.78Q369.57-12.14 367.85-9.76L367.85-9.76L367.85-9.76Q367.28-9.10 366.91-9.39L366.91-9.39L366.91-9.39Q366.54-9.68 366.54-9.92L366.54-9.92L366.54-9.92Q366.54-10.17 366.70-10.50L366.70-10.50L366.70-10.50Q370.15-15.17 371.21-18.29ZM411.72-23.86L411.72-23.86L411.72-23.86Q416.15-23.86 416.15-19.60L416.15-19.60L416.15-19.60Q416.15-17.38 414.92-15.99L414.92-15.99L414.92-15.99Q412.87-12.96 408.28-10.70L408.28-10.70L408.28-10.70Q403.69-8.45 400.49-8.20L400.49-8.20L400.49-8.20Q399.34-8.12 399.26-8.86L399.26-8.86L399.26-8.86Q399.18-9.18 399.46-9.27L399.46-9.27L399.46-9.27Q399.75-9.35 399.91-9.35L399.91-9.35L399.91-9.35Q401.80-9.51 404.75-11.15L404.75-11.15L404.75-11.15Q410.25-14.10 412.79-17.22L412.79-17.22L412.79-17.22Q413.85-18.70 413.85-20.05L413.85-20.05L413.85-20.05Q413.85-21.40 412.54-21.40L412.54-21.40L412.54-21.40Q411.48-21.40 409.67-20.50L409.67-20.50L409.67-20.50Q405.82-18.70 401.55-14.23L401.55-14.23L401.55-14.23Q397.29-9.76 395.98-5.49L395.98-5.49L395.98-5.49Q395.57-4.18 395.57-2.91L395.57-2.91L395.57-2.91Q395.57-1.64 396.63-0.49L396.63-0.49L396.63-0.49Q397.70 0.66 399.91 0.66L399.91 0.66L399.91 0.66Q402.37 0.66 405.57-0.66L405.57-0.66L405.57-0.66Q414.84-4.43 419.84-12.05L419.84-12.05L419.84-12.05Q420.33-12.71 420.74-12.30L420.74-12.30L420.74-12.30Q421.07-12.14 421.07-11.89L421.07-11.89L421.07-11.89Q421.07-11.64 420.82-11.32L420.82-11.32L420.82-11.32Q418.36-7.22 414.59-4.02L414.59-4.02L414.59-4.02Q407.29 2.21 400.41 2.21L400.41 2.21L400.41 2.21Q394.50 2.21 392.12-1.31L392.12-1.31L392.12-1.31Q391.22-2.71 391.22-4.67L391.22-4.67L391.22-4.67Q391.22-6.64 392.29-9.35L392.29-9.35L392.29-9.35Q394.34-14.02 401.06-18.94L401.06-18.94L401.06-18.94Q407.79-23.86 411.72-23.86ZM441.73-23.29L441.73-23.29L441.73-23.29Q443.62-23.29 443.62-21.28L443.62-21.28L443.62-21.28Q443.62-19.27 441.73-15.74L441.73-15.74L441.73-15.74Q439.85-12.22 438.95-10.00L438.95-10.00L438.95-10.00Q437.39-6.23 437.39-3.98L437.39-3.98L437.39-3.98Q437.39-1.72 438.04-0.98L438.04-0.98L438.04-0.98Q439.27 0.33 441.41-0.86L441.41-0.86L441.41-0.86Q443.54-2.05 447.35-5.45L447.35-5.45L447.35-5.45Q451.16-8.86 453.46-12.14L453.46-12.14L453.46-12.14Q453.79-12.55 454.24-12.34L454.24-12.34L454.24-12.34Q454.69-12.14 454.69-11.93L454.69-11.93L454.69-11.93Q454.69-11.73 454.53-11.48L454.53-11.48L454.53-11.48Q453.30-9.27 450.10-5.82L450.10-5.82L450.10-5.82Q446.90-2.38 443.95-0.29L443.95-0.29L443.95-0.29Q441.00 1.80 438.13 1.80L438.13 1.80L438.13 1.80Q435.34 1.72 434.19 0.53L434.19 0.53L434.19 0.53Q433.04-0.66 433.04-2.46L433.04-2.46L433.04-2.46Q433.04-4.26 433.37-5.95L433.37-5.95L433.37-5.95Q433.70-7.63 434.60-9.84L434.60-9.84L434.60-9.84Q436.08-13.37 437.18-15.33L437.18-15.33L437.18-15.33Q438.29-17.30 438.29-17.92L438.29-17.92L438.29-17.92Q438.29-18.53 437.63-18.53L437.63-18.53L437.63-18.53Q436.32-18.53 432.63-15.33L432.63-15.33L432.63-15.33Q430.09-12.96 425.13-6.36L425.13-6.36L425.13-6.36Q420.17 0.25 419.51 0.66L419.51 0.66L419.51 0.66Q416.56 2.13 415.82 2.13L415.82 2.13L415.82 2.13Q415.08 2.13 415.08 1.89L415.08 1.89L415.08 1.89Q415.08 1.64 415.25 1.19L415.25 1.19L415.25 1.19Q415.41 0.74 416.85-3.28L416.85-3.28L416.85-3.28Q418.28-7.30 419.96-12.10L419.96-12.10L419.96-12.10Q421.64-16.89 422.01-17.88L422.01-17.88L422.01-17.88Q422.38-18.86 422.51-19.56L422.51-19.56L422.51-19.56Q422.63-20.25 422.79-20.75L422.79-20.75L422.79-20.75Q422.96-21.24 423.41-21.85L423.41-21.85L423.41-21.85Q423.86-22.47 424.60-22.51L424.60-22.51L424.60-22.51Q425.33-22.55 426.48-22.35L426.48-22.35L426.48-22.35Q427.63-22.14 427.63-21.32L427.63-21.32L427.63-21.32Q427.63-20.75 426.73-18.82L426.73-18.82L426.73-18.82Q425.83-16.89 421.56-5.58L421.56-5.58L421.56-5.58Q424.51-9.18 429.02-13.90L429.02-13.90L429.02-13.90Q433.53-18.61 436.65-21.07L436.65-21.07L436.65-21.07Q439.77-23.29 441.73-23.29Z" fill="url(#editing-sticker-gradient)" stroke="#000" stroke-width="2.5"></path></g></g><style>text {
  font-size: 64px;
  font-family: Arial Black;
  dominant-baseline: central;
  text-anchor: middle;
}</style></svg>