<svg width="408.535009765625px" height="122.021240234375px" xmlns="http://www.w3.org/2000/svg" viewBox="45.73249511718751 13.9893798828125 408.535009765625 122.021240234375" style="background: rgba(0, 0, 0, 0);" preserveAspectRatio="xMidYMid"><defs><linearGradient id="editing-sticker-gradient" x1="0.5" y1="0.2" x2="0.5" y2="0.8"><stop offset="0" stop-color="#fd9"></stop><stop offset="1" stop-color="#9df"></stop></linearGradient><filter id="editing-sticker" x="-100%" y="-100%" width="300%" height="300%"><feMorphology operator="erode" radius="1" in="SourceAlpha" result="alpha-erode"></feMorphology><feConvolveMatrix order="3,3" divisor="1" kernelMatrix="0 1 0 1 1 1 0 1 0" in="alpha-erode" result="alpha-round"></feConvolveMatrix><feMorphology operator="dilate" radius="3.5" in="alpha-round" result="dilate-shadow"></feMorphology><feGaussianBlur in="dilate-shadow" stdDeviation="1.5" result="shadow"></feGaussianBlur><feFlood flood-color="#fff" result="flood-sticker"></feFlood><feComposite operator="in" in="flood-sticker" in2="alpha-round" result="comp-sticker"></feComposite><feMorphology operator="dilate" radius="3" in="comp-sticker" result="morph-sticker"></feMorphology><feConvolveMatrix order="3,3" divisor="1" kernelMatrix="0 1 0 1 1 1 0 1 0" in="morph-sticker" result="sticker"></feConvolveMatrix><feMerge><feMergeNode in="shadow"></feMergeNode><feMergeNode in="sticker"></feMergeNode><feMergeNode in="SourceGraphic"></feMergeNode></feMerge></filter></defs><g filter="url(#editing-sticker)"><g transform="translate(106.85998594760895, 98.9921875)"><path d="M34.50-13.25L34.50-13.25L34.50-13.25Q36.16-12.03 36.16-9.44L36.16-9.44L36.16-9.44Q36.16-6.85 35.04-5.02L35.04-5.02L35.04-5.02Q33.92-3.20 31.74-1.79L31.74-1.79L31.74-1.79Q27.07 1.22 18.91 1.22L18.91 1.22L18.91 1.22Q10.75 1.22 6.30-3.04L6.30-3.04L6.30-3.04Q1.86-7.30 1.86-14.85L1.86-14.85L1.86-14.85Q1.86-25.54 7.42-33.66L7.42-33.66L7.42-33.66Q11.65-39.68 19.20-42.24L19.20-42.24L19.20-42.24Q23.10-43.52 26.94-43.52L26.94-43.52L26.94-43.52Q30.78-43.52 33.15-43.01L33.15-43.01L33.15-43.01Q35.52-42.50 37.31-41.47L37.31-41.47L37.31-41.47Q41.22-39.23 41.22-35.65L41.22-35.65L41.22-35.65Q41.22-32.38 38.14-29.95L38.14-29.95L38.14-29.95Q35.33-27.78 33.02-27.78L33.02-27.78L33.02-27.78Q30.72-27.78 29.76-28.10L29.76-28.10L29.76-28.10Q30.02-30.40 30.02-31.90L30.02-31.90L30.02-31.90Q30.02-33.41 29.95-34.50L29.95-34.50L29.95-34.50Q29.89-35.58 29.57-36.61L29.57-36.61L29.57-36.61Q28.93-38.98 26.98-38.98L26.98-38.98L26.98-38.98Q25.02-38.98 23.07-37.15L23.07-37.15L23.07-37.15Q21.12-35.33 19.46-32.26L19.46-32.26L19.46-32.26Q15.68-25.28 15.68-17.02L15.68-17.02L15.68-17.02Q15.68-13.06 17.92-10.78L17.92-10.78L17.92-10.78Q20.16-8.51 24.96-8.51L24.96-8.51L24.96-8.51Q28.54-8.51 31.94-10.88L31.94-10.88L31.94-10.88Q33.41-11.90 34.50-13.25ZM55.42 1.28L55.42 1.28L55.42 1.28Q41.34 1.28 41.34-11.97L41.34-11.97L41.34-11.97Q41.34-21.38 46.53-27.46L46.53-27.46L46.53-27.46Q52.03-33.92 61.57-33.92L61.57-33.92L61.57-33.92Q68.48-33.92 72-30.72L72-30.72L72-30.72Q75.52-27.52 75.52-20.80L75.52-20.80L75.52-20.80Q75.52-10.56 70.02-4.61L70.02-4.61L70.02-4.61Q64.64 1.28 55.42 1.28ZM57.09-26.56L57.09-26.56L57.09-26.56Q56.32-24.83 55.71-22.24L55.71-22.24L55.71-22.24Q55.10-19.65 54.34-15.55L54.34-15.55L54.34-15.55Q53.57-11.46 53.57-6.40L53.57-6.40L53.57-6.40Q53.57-4.74 54.11-3.65L54.11-3.65L54.11-3.65Q54.66-2.56 56.13-2.56L56.13-2.56L56.13-2.56Q57.60-2.56 58.53-3.26L58.53-3.26L58.53-3.26Q59.46-3.97 60.16-5.63L60.16-5.63L60.16-5.63Q61.44-8.58 62.46-14.05L62.46-14.05L62.46-14.05Q63.49-19.52 63.58-21.89L63.58-21.89L63.58-21.89Q63.68-24.26 63.68-26.02L63.68-26.02L63.68-26.02Q63.68-27.78 63.17-28.93L63.17-28.93L63.17-28.93Q62.66-30.08 61.22-30.08L61.22-30.08L61.22-30.08Q59.78-30.08 58.82-29.18L58.82-29.18L58.82-29.18Q57.86-28.29 57.09-26.56ZM110.72-26.62L110.72-26.62L110.72-26.62Q110.72-23.94 108.48-22.27L108.48-22.27L108.48-22.27Q106.24-20.61 102.59-20.61L102.59-20.61L102.59-20.61Q101.06-20.61 100.16-21.06L100.16-21.06L100.16-21.06Q100.86-22.72 101.09-24.80L101.09-24.80L101.09-24.80Q101.31-26.88 101.31-27.46L101.31-27.46L101.31-27.46Q101.31-30.14 99.46-30.14L99.46-30.14L99.46-30.14Q98.18-30.14 96.74-28.54L96.74-28.54L96.74-28.54Q95.30-26.94 94.08-24.45L94.08-24.45L94.08-24.45Q91.39-18.69 91.39-12.86L91.39-12.86L91.39-12.86Q91.39-9.66 92.61-8.22L92.61-8.22L92.61-8.22Q93.82-6.78 96.51-6.78L96.51-6.78L96.51-6.78Q100.22-6.78 103.17-9.86L103.17-9.86L103.17-9.86Q104-10.82 104.45-11.90L104.45-11.90L104.45-11.90Q106.88-10.62 106.88-7.10L106.88-7.10L106.88-7.10Q106.88-3.52 102.91-1.15L102.91-1.15L102.91-1.15Q98.82 1.28 92.29 1.28L92.29 1.28L92.29 1.28Q79.30 1.28 79.30-12.48L79.30-12.48L79.30-12.48Q79.30-22.53 84.99-28.29L84.99-28.29L84.99-28.29Q90.50-33.92 100.61-33.92L100.61-33.92L100.61-33.92Q110.72-33.92 110.72-26.62ZM128.96-30.34L128.96-30.34L128.96-30.34Q132.42-33.92 139.71-33.92L139.71-33.92L139.71-33.92Q143.74-33.92 145.95-31.78L145.95-31.78L145.95-31.78Q148.16-29.63 148.16-25.70L148.16-25.70L148.16-25.70Q148.16-21.76 145.95-18.98L145.95-18.98L145.95-18.98Q143.74-16.19 139.65-15.04L139.65-15.04L139.65-15.04Q139.97-13.76 140.42-12.42L140.42-12.42L141.31-9.86L141.31-9.86Q142.53-6.59 143.49-5.44L143.49-5.44L143.49-5.44Q144.45-4.29 145.73-3.90L145.73-3.90L145.73-3.90Q145.02-1.28 142.46 0.13L142.46 0.13L142.46 0.13Q140.42 1.28 137.60 1.28L137.60 1.28L137.60 1.28Q129.34 1.28 128.26-11.46L128.26-11.46L128.26-11.46Q128.06-13.25 128.06-15.04L128.06-15.04L128.06-15.04Q131.26-15.94 133.50-18.94L133.50-18.94L133.50-18.94Q135.74-21.95 135.74-25.47L135.74-25.47L135.74-25.47Q135.74-28.99 133.25-28.99L133.25-28.99L133.25-28.99Q131.46-28.99 130.05-27.01L130.05-27.01L130.05-27.01Q128.64-25.02 128-21.63L128-21.63L123.78 0L110.85 1.28L119.81-44.80L132.67-46.08L131.20-38.46L131.20-38.46Q130.24-33.09 128.96-30.34ZM152.13-6.40L152.13-6.40L152.13-6.40Q152.13-8.13 153.02-12.48L153.02-12.48L156.42-29.76L152.64-29.76L152.90-31.68L152.90-31.68Q160.58-33.98 168-39.62L168-39.62L171.07-39.62L169.54-32.64L174.53-32.64L173.95-29.76L169.02-29.76L165.76-12.48L165.76-12.48Q164.93-8.51 164.93-7.17L164.93-7.17L164.93-7.17Q164.93-4.10 167.62-3.46L167.62-3.46L167.62-3.46Q166.98-1.28 164.67 0L164.67 0L164.67 0Q162.37 1.28 159.10 1.28L159.10 1.28L159.10 1.28Q155.84 1.28 153.98-0.77L153.98-0.77L153.98-0.77Q152.13-2.82 152.13-6.40ZM176.74-1.92L176.74-1.92L176.74-1.92Q175.23-3.58 174.56-6.21L174.56-6.21L174.56-6.21Q173.89-8.83 173.89-13.12L173.89-13.12L173.89-13.12Q173.89-17.41 175.36-21.31L175.36-21.31L175.36-21.31Q176.83-25.22 179.52-28.03L179.52-28.03L179.52-28.03Q185.02-33.92 194.11-33.92L194.11-33.92L194.11-33.92Q197.38-33.92 199.74-32.83L199.74-32.83L210.69-33.92L205.95-8.96L205.95-8.96Q205.76-8.19 205.76-6.78L205.76-6.78L205.76-6.78Q205.76-5.38 206.62-4.48L206.62-4.48L206.62-4.48Q207.49-3.58 208.77-3.46L208.77-3.46L208.77-3.46Q208.13-1.28 205.79 0L205.79 0L205.79 0Q203.46 1.28 200.83 1.28L200.83 1.28L200.83 1.28Q198.21 1.28 196.45 0.29L196.45 0.29L196.45 0.29Q194.69-0.70 194.18-2.37L194.18-2.37L194.18-2.37Q193.15-0.77 190.98 0.26L190.98 0.26L190.98 0.26Q188.80 1.28 185.89 1.28L185.89 1.28L185.89 1.28Q182.98 1.28 180.61 0.51L180.61 0.51L180.61 0.51Q178.24-0.26 176.74-1.92ZM190.24-27.90L190.24-27.90L190.24-27.90Q189.50-26.75 188.86-24.80L188.86-24.80L188.86-24.80Q188.22-22.85 187.17-17.63L187.17-17.63L187.17-17.63Q186.11-12.42 186.11-8.70L186.11-8.70L186.11-8.70Q186.11-4.99 186.69-3.90L186.69-3.90L186.69-3.90Q187.26-2.82 188.29-2.82L188.29-2.82L188.29-2.82Q190.34-2.82 191.84-4.77L191.84-4.77L191.84-4.77Q193.34-6.72 193.92-10.18L193.92-10.18L197.31-28.93L197.31-28.93Q195.97-30.08 194.40-30.08L194.40-30.08L194.40-30.08Q192.83-30.08 191.90-29.57L191.90-29.57L191.90-29.57Q190.98-29.06 190.24-27.90ZM229.50-3.52L229.50-3.52L229.50-3.52Q227.52 1.28 221.18 1.28L221.18 1.28L221.18 1.28Q217.92 1.28 215.87-0.96L215.87-0.96L215.87-0.96Q214.14-2.94 214.14-4.93L214.14-4.93L214.14-4.93Q214.14-10.11 216.51-20.22L216.51-20.22L218.88-32.64L231.87-33.92L227.97-13.70L227.97-13.70Q226.88-8.96 226.88-7.30L226.88-7.30L226.88-7.30Q226.88-3.65 229.50-3.52ZM220.03-41.54L220.03-41.54L220.03-41.54Q220.03-44.03 222.11-45.38L222.11-45.38L222.11-45.38Q224.19-46.72 227.20-46.72L227.20-46.72L227.20-46.72Q230.21-46.72 232.03-45.38L232.03-45.38L232.03-45.38Q233.86-44.03 233.86-41.54L233.86-41.54L233.86-41.54Q233.86-39.04 231.84-37.76L231.84-37.76L231.84-37.76Q229.82-36.48 226.82-36.48L226.82-36.48L226.82-36.48Q223.81-36.48 221.92-37.76L221.92-37.76L221.92-37.76Q220.03-39.04 220.03-41.54ZM250.24-3.52L250.24-3.52L250.24-3.52Q248.26 1.28 241.92 1.28L241.92 1.28L241.92 1.28Q238.72 1.28 236.67-0.96L236.67-0.96L236.67-0.96Q235.01-2.82 235.01-4.93L235.01-4.93L235.01-4.93Q235.01-9.73 237.25-20.22L237.25-20.22L241.92-44.80L254.91-46.08L248.70-13.70L248.70-13.70Q247.62-8.96 247.62-7.30L247.62-7.30L247.62-7.30Q247.62-3.65 250.24-3.52ZM274.82-22.46L274.82-22.46L274.82-22.46Q275.71-24.83 275.71-26.88L275.71-26.88L275.71-26.88Q275.71-30.66 272.64-30.66L272.64-30.66L272.64-30.66Q271.04-30.66 269.73-29.22L269.73-29.22L269.73-29.22Q268.42-27.78 268.42-25.98L268.42-25.98L268.42-25.98Q268.42-24.70 269.44-23.68L269.44-23.68L269.44-23.68Q270.91-22.27 274.69-19.97L274.69-19.97L274.69-19.97Q278.46-17.66 279.90-15.78L279.90-15.78L279.90-15.78Q281.34-13.89 281.34-11.30L281.34-11.30L281.34-11.30Q281.34-8.70 280.10-6.34L280.10-6.34L280.10-6.34Q278.85-3.97 276.61-2.30L276.61-2.30L276.61-2.30Q271.81 1.28 264.13 1.28L264.13 1.28L264.13 1.28Q259.97 1.28 256.77-0.90L256.77-0.90L256.77-0.90Q253.57-3.01 253.57-5.50L253.57-5.50L253.57-5.50Q253.57-8 255.39-9.47L255.39-9.47L255.39-9.47Q257.22-10.94 259.90-10.94L259.90-10.94L259.90-10.94Q262.59-10.94 264.26-9.92L264.26-9.92L264.26-9.92Q263.42-7.81 263.42-6.40L263.42-6.40L263.42-6.40Q263.42-2.18 267.01-2.18L267.01-2.18L267.01-2.18Q268.54-2.18 269.57-3.14L269.57-3.14L269.57-3.14Q270.59-4.10 270.59-5.76L270.59-5.76L270.59-5.76Q270.59-9.02 265.09-12.48L265.09-12.48L265.09-12.48Q260.61-15.42 259.58-16.58L259.58-16.58L259.58-16.58Q257.86-18.62 257.86-21.18L257.86-21.18L257.86-21.18Q257.86-23.74 259.07-26.18L259.07-26.18L259.07-26.18Q260.29-28.61 262.53-30.34L262.53-30.34L262.53-30.34Q267.20-33.92 275.33-33.92L275.33-33.92L275.33-33.92Q279.49-33.92 281.95-32.26L281.95-32.26L281.95-32.26Q284.42-30.59 284.42-27.78L284.42-27.78L284.42-27.78Q284.42-24.96 282.72-23.36L282.72-23.36L282.72-23.36Q281.02-21.76 277.95-21.76L277.95-21.76L277.95-21.76Q275.84-21.76 274.82-22.46Z" fill="url(#editing-sticker-gradient)" stroke="#000" stroke-width="2.5"></path></g></g><style>text {
  font-size: 64px;
  font-family: Arial Black;
  dominant-baseline: central;
  text-anchor: middle;
}</style></svg>